<svg xmlns="http://www.w3.org/2000/svg" class="graphdiagram" viewBox="-1422.6054172679867 -1916.7116678265731 3154.76041890148 3273.3109148100953"><g class="layer relationships"><g class="related-pair"><g class="relationship" transform="translate(829.0421447753906,-848.488525390625) rotate(99.74429321730841)"><path class="relationship" d="M 144.92283729579663 4 L 421.3605450212616 4 L 421.3605450212616 16 L 453.3605450212616 0 L 421.3605450212616 -16 L 421.3605450212616 -4 L 144.92283729579663 -4 Z" fill="rgb(0, 0, 0)" stroke="rgb(51, 51, 51)" stroke-width="0px"/><text class="type" text-anchor="middle" baseline-shift="30%" alignment-baseline="alphabetic" x="-283.1416911585291" y="0" font-size="50px" font-family="&quot;Gill Sans&quot;, &quot;Gill Sans MT&quot;, Calibri, sans-serif" transform="rotate(180)">Contains</text></g></g><g class="related-pair"><g class="relationship" transform="translate(725.1160430908203,-243.31309824297506) rotate(179.52786822373622)"><path class="relationship" d="M 160.67360080020023 4 L 889.3281609188275 4 L 889.3281609188275 16 L 921.3281609188275 0 L 889.3281609188275 -16 L 889.3281609188275 -4 L 160.67360080020023 -4 Z" fill="rgb(0, 0, 0)" stroke="rgb(51, 51, 51)" stroke-width="0px"/><text class="type" text-anchor="middle" baseline-shift="30%" alignment-baseline="alphabetic" transform="rotate(180)" x="-525.0008808595139" y="0" font-size="50px" font-family="&quot;Gill Sans&quot;, &quot;Gill Sans MT&quot;, Calibri, sans-serif">On</text></g></g><g class="related-pair"><g class="relationship" transform="translate(-335.76622772216797,-234.57096099853516) rotate(179.46682664643802)"><path class="relationship" d="M 139.59012881366783 4 L 562.1003724207463 4 L 562.1003724207463 16 L 594.1003724207463 0 L 562.1003724207463 -16 L 562.1003724207463 -4 L 139.59012881366783 -4 Z" fill="rgb(0, 0, 0)" stroke="rgb(51, 51, 51)" stroke-width="0px"/><text class="type" text-anchor="middle" baseline-shift="30%" alignment-baseline="alphabetic" transform="rotate(180)" x="-350.84525061720706" y="0" font-size="50px" font-family="&quot;Gill Sans&quot;, &quot;Gill Sans MT&quot;, Calibri, sans-serif">Constitutes</text></g></g><g class="related-pair"><g class="relationship" transform="translate(-335.76622772216797,-234.57096099853516) rotate(-89.69579715551914)"><path class="relationship" d="M 139.59012881366783 4 L 391.9172966348017 4 L 391.9172966348017 16 L 423.9172966348017 0 L 391.9172966348017 -16 L 391.9172966348017 -4 L 139.59012881366783 -4 Z" fill="rgb(0, 0, 0)" stroke="rgb(51, 51, 51)" stroke-width="0px"/><text class="type" text-anchor="middle" baseline-shift="30%" alignment-baseline="alphabetic" x="265.7537127242348" y="0" font-size="50px" font-family="&quot;Gill Sans&quot;, &quot;Gill Sans MT&quot;, Calibri, sans-serif">MigratesTo</text></g></g><g class="related-pair"><g class="relationship" transform="translate(-332.6906982421875,-813.8331420898438) rotate(179.3133003514774)"><path class="relationship" d="M 155.35304899342248 4 L 554.1303124549452 4 L 554.1303124549452 16 L 586.1303124549452 0 L 554.1303124549452 -16 L 554.1303124549452 -4 L 155.35304899342248 -4 Z" fill="rgb(0, 0, 0)" stroke="rgb(51, 51, 51)" stroke-width="0px"/><text class="type" text-anchor="middle" baseline-shift="30%" alignment-baseline="alphabetic" transform="rotate(180)" x="-354.7416807241838" y="0" font-size="50px" font-family="&quot;Gill Sans&quot;, &quot;Gill Sans MT&quot;, Calibri, sans-serif">(Constitutes)</text></g></g><g class="related-pair"><g class="relationship" transform="translate(725.1160430908203,-243.31309824297506) rotate(102.87113964294073)"><path class="relationship" d="M 160.67360080020023 4 L 1038.0353047499668 4 L 1038.0353047499668 16 L 1070.0353047499668 0 L 1038.0353047499668 -16 L 1038.0353047499668 -4 L 160.67360080020023 -4 Z" fill="rgb(0, 0, 0)" stroke="rgb(51, 51, 51)" stroke-width="0px"/><text class="type" text-anchor="middle" baseline-shift="30%" alignment-baseline="alphabetic" transform="rotate(180)" x="-599.3544527750835" y="0" font-size="50px" font-family="&quot;Gill Sans&quot;, &quot;Gill Sans MT&quot;, Calibri, sans-serif">HasGlyph</text></g></g><g class="related-pair"><g class="relationship" transform="translate(725.1160430908203,-243.31309824297506) rotate(83.55819103920838)"><path class="relationship" d="M 160.67360080020023 4 L 991.0129212363112 4 L 991.0129212363112 16 L 1023.0129212363112 0 L 991.0129212363112 -16 L 991.0129212363112 -4 L 160.67360080020023 -4 Z" fill="rgb(0, 0, 0)" stroke="rgb(51, 51, 51)" stroke-width="0px"/><text class="type" text-anchor="middle" baseline-shift="30%" alignment-baseline="alphabetic" x="575.8432610182557" y="0" font-size="50px" font-family="&quot;Gill Sans&quot;, &quot;Gill Sans MT&quot;, Calibri, sans-serif">HasEvidence</text></g></g><g class="related-pair"><g class="relationship" transform="translate(725.1160430908203,-243.31309824297506) rotate(150.9869909660557)"><path class="relationship" d="M 160.67360080020023 4 L 1029.328618047779 4 L 1029.328618047779 16 L 1061.328618047779 0 L 1029.328618047779 -16 L 1029.328618047779 -4 L 160.67360080020023 -4 Z" fill="rgb(0, 0, 0)" stroke="rgb(51, 51, 51)" stroke-width="0px"/><text class="type" text-anchor="middle" baseline-shift="30%" alignment-baseline="alphabetic" x="-595.0011094239896" y="0" font-size="50px" font-family="&quot;Gill Sans&quot;, &quot;Gill Sans MT&quot;, Calibri, sans-serif" transform="rotate(180)">UnifiedBy</text></g></g><g class="related-pair"><g class="relationship" transform="translate(725.1160430908203,-243.31309824297506) rotate(0)"><path class="relationship" d="M 160.67360080020023 4 L 630.187197134614 4 L 630.187197134614 16 L 662.187197134614 0 L 630.187197134614 -16 L 630.187197134614 -4 L 160.67360080020023 -4 Z" fill="rgb(0, 0, 0)" stroke="rgb(51, 51, 51)" stroke-width="0px"/><text class="type" text-anchor="middle" baseline-shift="30%" alignment-baseline="alphabetic" x="395.43039896740714" y="0" font-size="50px" font-family="&quot;Gill Sans&quot;, &quot;Gill Sans MT&quot;, Calibri, sans-serif">Answers</text></g></g><g class="related-pair"><g class="relationship" transform="translate(829.0421447753906,-1529.8683166503906) rotate(90)"><path class="relationship" d="M 99.13298630207927 4 L 504.456953963969 4 L 504.456953963969 16 L 536.456953963969 0 L 504.456953963969 -16 L 504.456953963969 -4 L 99.13298630207927 -4 Z" fill="rgb(0, 0, 0)" stroke="rgb(51, 51, 51)" stroke-width="0px"/><text class="type" text-anchor="middle" baseline-shift="30%" alignment-baseline="alphabetic" x="301.7949701330241" y="0" font-size="50px" font-family="&quot;Gill Sans&quot;, &quot;Gill Sans MT&quot;, Calibri, sans-serif">Writes</text></g></g><g class="related-pair"><g class="relationship" transform="translate(829.0421447753906,-848.488525390625) rotate(0)"><path class="relationship" d="M 144.92283729579663 4 L 560.6699190208035 4 L 560.6699190208035 16 L 592.6699190208035 0 L 560.6699190208035 -16 L 560.6699190208035 -4 L 144.92283729579663 -4 Z" fill="rgb(0, 0, 0)" stroke="rgb(51, 51, 51)" stroke-width="0px"/><text class="type" text-anchor="middle" baseline-shift="30%" alignment-baseline="alphabetic" x="352.79637815830006" y="0" font-size="50px" font-family="&quot;Gill Sans&quot;, &quot;Gill Sans MT&quot;, Calibri, sans-serif">RespondsTo</text></g></g><g class="related-pair"><g class="relationship" transform="translate(829.0421447753906,-848.488525390625) rotate(-141.2411943834037)"><path class="relationship" d="M 144.92283729579663 4 L 362.4592136173637 4 L 362.4592136173637 16 L 394.4592136173637 0 L 362.4592136173637 -16 L 362.4592136173637 -4 L 144.92283729579663 -4 Z" fill="rgb(0, 0, 0)" stroke="rgb(51, 51, 51)" stroke-width="0px"/><text class="type" text-anchor="middle" baseline-shift="30%" alignment-baseline="alphabetic" transform="rotate(180)" x="-253.69102545658015" y="0" font-size="50px" font-family="&quot;Gill Sans&quot;, &quot;Gill Sans MT&quot;, Calibri, sans-serif">HasFile</text></g></g></g><g class="layer nodes"><circle class="node node-id-0" r="84.36977273673656" fill="rgb(255, 255, 255)" stroke="rgb(0, 0, 0)" stroke-width="8px" cx="-1029.20634765625" cy="-228.11787719726564"/><g class="caption"><text class="caption node" text-anchor="middle" alignment-baseline="central" x="-1029.20634765625" y="-228.11787719726564" fill="rgb(51, 51, 51)" font-size="50px" font-family="&quot;Gill Sans&quot;, &quot;Gill Sans MT&quot;, Calibri, sans-serif">Series</text></g><circle class="node node-id-1" r="145.67360080020023" fill="rgb(255, 255, 255)" stroke="rgb(0, 0, 0)" stroke-width="8px" cx="725.1160430908203" cy="-243.31309824297506"/><g class="caption"><text class="caption node" text-anchor="middle" alignment-baseline="central" x="725.1160430908203" y="-243.31309824297506" fill="rgb(51, 51, 51)" font-size="50px" font-family="&quot;Gill Sans&quot;, &quot;Gill Sans MT&quot;, Calibri, sans-serif">CharMotion</text></g><circle class="node node-id-3" r="129.92283729579663" fill="rgb(255, 255, 255)" stroke="rgb(0, 0, 0)" stroke-width="8px" cx="829.0421447753906" cy="-848.488525390625"/><g class="caption"><text class="caption node" text-anchor="middle" alignment-baseline="central" x="829.0421447753906" y="-848.488525390625" fill="rgb(51, 51, 51)" font-size="50px" font-family="&quot;Gill Sans&quot;, &quot;Gill Sans MT&quot;, Calibri, sans-serif">Document</text></g><circle class="node node-id-3" r="124.59012881366782" fill="rgb(255, 255, 255)" stroke="rgb(0, 0, 0)" stroke-width="8px" cx="-335.76622772216797" cy="-234.57096099853516"/><g class="caption"><text class="caption node" text-anchor="middle" alignment-baseline="central" x="-335.76622772216797" y="-234.57096099853516" fill="rgb(51, 51, 51)" font-size="50px" font-family="&quot;Gill Sans&quot;, &quot;Gill Sans MT&quot;, Calibri, sans-serif">Character</text></g><circle class="node node-id-4" r="140.35304899342248" fill="rgb(255, 255, 255)" stroke="rgb(0, 0, 0)" stroke-width="8px" cx="-332.6906982421875" cy="-813.8331420898438"/><g class="caption"><text class="caption node" text-anchor="middle" alignment-baseline="central" x="-332.6906982421875" y="-813.8331420898438" fill="rgb(51, 51, 51)" font-size="50px" font-family="&quot;Gill Sans&quot;, &quot;Gill Sans MT&quot;, Calibri, sans-serif">(Character)</text></g><circle class="node node-id-5" r="99.5407748053742" fill="rgb(255, 255, 255)" stroke="rgb(0, 0, 0)" stroke-width="8px" cx="-1033.3114624023438" cy="-805.4356811523438"/><g class="caption"><text class="caption node" text-anchor="middle" alignment-baseline="central" x="-1033.3114624023438" y="-805.4356811523438" fill="rgb(51, 51, 51)" font-size="50px" font-family="&quot;Gill Sans&quot;, &quot;Gill Sans MT&quot;, Calibri, sans-serif">(Series)</text></g><circle class="node node-id-6" r="83.94141083910932" fill="rgb(255, 255, 255)" stroke="rgb(0, 0, 0)" stroke-width="8px" cx="464.7158508300781" cy="896.2913513183594"/><g class="caption"><text class="caption node" text-anchor="middle" alignment-baseline="central" x="464.7158508300781" y="896.2913513183594" fill="rgb(51, 51, 51)" font-size="50px" font-family="&quot;Gill Sans&quot;, &quot;Gill Sans MT&quot;, Calibri, sans-serif">Glyph</text></g><circle class="node node-id-7" r="111.51650356937955" fill="rgb(255, 255, 255)" stroke="rgb(0, 0, 0)" stroke-width="8px" cx="854.0864151000977" cy="898.9585601806641"/><g class="caption"><text class="caption node" text-anchor="middle" alignment-baseline="central" x="854.0864151000977" y="898.9585601806641" fill="rgb(51, 51, 51)" font-size="50px" font-family="&quot;Gill Sans&quot;, &quot;Gill Sans MT&quot;, Calibri, sans-serif">Evidence</text></g><circle class="node node-id-8" r="140.35304899342248" fill="rgb(255, 255, 255)" stroke="rgb(0, 0, 0)" stroke-width="8px" cx="-338.88376502990724" cy="346.7874755859375"/><g class="caption"><text class="caption node" text-anchor="middle" alignment-baseline="central" x="-338.88376502990724" y="346.7874755859375" fill="rgb(51, 51, 51)" font-size="50px" font-family="&quot;Gill Sans&quot;, &quot;Gill Sans MT&quot;, Calibri, sans-serif">(Character)</text></g><circle class="node node-id-9" r="161.55351703393458" fill="rgb(255, 255, 255)" stroke="rgb(0, 0, 0)" stroke-width="8px" cx="1563.856757259369" cy="-243.31309824297506"/><g class="caption"><text class="caption node" text-anchor="middle" alignment-baseline="central" x="1563.856757259369" y="-243.31309824297506" fill="rgb(51, 51, 51)" font-size="50px" font-family="&quot;Gill Sans&quot;, &quot;Gill Sans MT&quot;, Calibri, sans-serif">(CharMotion)</text></g><circle class="node node-id-10" r="84.13298630207927" fill="rgb(255, 255, 255)" stroke="rgb(0, 0, 0)" stroke-width="8px" cx="829.0421447753906" cy="-1529.8683166503906"/><g class="caption"><text class="caption node" text-anchor="middle" alignment-baseline="central" x="829.0421447753906" y="-1529.8683166503906" fill="rgb(51, 51, 51)" font-size="50px" font-family="&quot;Gill Sans&quot;, &quot;Gill Sans MT&quot;, Calibri, sans-serif">Agent</text></g><circle class="node node-id-11" r="145.72146891864963" fill="rgb(255, 255, 255)" stroke="rgb(0, 0, 0)" stroke-width="8px" cx="1582.4335327148438" cy="-848.488525390625"/><g class="caption"><text class="caption node" text-anchor="middle" alignment-baseline="central" x="1582.4335327148438" y="-848.488525390625" fill="rgb(51, 51, 51)" font-size="50px" font-family="&quot;Gill Sans&quot;, &quot;Gill Sans MT&quot;, Calibri, sans-serif">(Document)</text></g><circle class="node node-id-12" r="105.76094540740877" fill="rgb(255, 255, 255)" stroke="rgb(0, 0, 0)" stroke-width="8px" cx="427.2795043945313" cy="-1171.0386657714844"/><g class="caption"><text class="caption node" text-anchor="middle" alignment-baseline="central" x="427.2795043945313" y="-1171.0386657714844" fill="rgb(51, 51, 51)" font-size="50px" font-family="&quot;Gill Sans&quot;, &quot;Gill Sans MT&quot;, Calibri, sans-serif">DataFile</text></g></g><g class="layer properties"><g class="speech-bubble node-speech-bubble" transform="translate(-1113.5761203929867,-228.11787719726564) "><path class="speech-bubble-outline" transform="scale(-1,1) " d="M 0 0 L 20 -10 L 20 -25 A 10 10 0 0 1 30 -35 L 297.529296875 -35 A 10 10 0 0 1 307.529296875 -25 L 307.529296875 25 A 10 10 0 0 1 297.529296875 35 L 30 35 A 10 10 0 0 1 20 25 L 20 10 Z" fill="rgb(255, 255, 255)" stroke="rgb(0, 0, 0)" stroke-width="3px"/><text class="speech-bubble-content property-key" x="-163.837890625" y="0" alignment-baseline="central" text-anchor="end" font-size="50px" font-family="&quot;Gill Sans&quot;, &quot;Gill Sans MT&quot;, Calibri, sans-serif" xml:space="preserve">name: </text><text class="speech-bubble-content property-value" x="-163.837890625" y="0" alignment-baseline="central" font-size="50px" font-family="&quot;Gill Sans&quot;, &quot;Gill Sans MT&quot;, Calibri, sans-serif">string*</text></g><g class="speech-bubble node-speech-bubble" transform="translate(622.1092521251367,-346.3198892086587) "><path class="speech-bubble-outline" transform="scale(-1,-1) " d="M 0 0 L 30 20 L 772.4560546875 20 A 10 10 0 0 1 782.4560546875 30 L 782.4560546875 480 A 10 10 0 0 1 772.4560546875 490 L 30 490 A 10 10 0 0 1 20 480 L 20 30 Z" fill="rgb(255, 255, 255)" stroke="rgb(0, 0, 0)" stroke-width="3px"/><text class="speech-bubble-content property-key" x="-555.4150390625" y="-455" alignment-baseline="central" text-anchor="end" font-size="50px" font-family="&quot;Gill Sans&quot;, &quot;Gill Sans MT&quot;, Calibri, sans-serif" xml:space="preserve">rad: </text><text class="speech-bubble-content property-key" x="-555.4150390625" y="-405" alignment-baseline="central" text-anchor="end" font-size="50px" font-family="&quot;Gill Sans&quot;, &quot;Gill Sans MT&quot;, Calibri, sans-serif" xml:space="preserve">sc: </text><text class="speech-bubble-content property-key" x="-555.4150390625" y="-355" alignment-baseline="central" text-anchor="end" font-size="50px" font-family="&quot;Gill Sans&quot;, &quot;Gill Sans MT&quot;, Calibri, sans-serif" xml:space="preserve">fs: </text><text class="speech-bubble-content property-key" x="-555.4150390625" y="-305" alignment-baseline="central" text-anchor="end" font-size="50px" font-family="&quot;Gill Sans&quot;, &quot;Gill Sans MT&quot;, Calibri, sans-serif" xml:space="preserve">ts: </text><text class="speech-bubble-content property-value" x="-555.4150390625" y="-455" alignment-baseline="central" font-size="50px" font-family="&quot;Gill Sans&quot;, &quot;Gill Sans MT&quot;, Calibri, sans-serif">int*</text><text class="speech-bubble-content property-value" x="-555.4150390625" y="-405" alignment-baseline="central" font-size="50px" font-family="&quot;Gill Sans&quot;, &quot;Gill Sans MT&quot;, Calibri, sans-serif">int*</text><text class="speech-bubble-content property-value" x="-555.4150390625" y="-355" alignment-baseline="central" font-size="50px" font-family="&quot;Gill Sans&quot;, &quot;Gill Sans MT&quot;, Calibri, sans-serif">int*</text><text class="speech-bubble-content property-value" x="-555.4150390625" y="-305" alignment-baseline="central" font-size="50px" font-family="&quot;Gill Sans&quot;, &quot;Gill Sans MT&quot;, Calibri, sans-serif">int*</text><text class="speech-bubble-content property-key" x="-555.4150390625" y="-255" alignment-baseline="central" text-anchor="end" font-size="50px" font-family="&quot;Gill Sans&quot;, &quot;Gill Sans MT&quot;, Calibri, sans-serif" xml:space="preserve">ids: </text><text class="speech-bubble-content property-key" x="-555.4150390625" y="-205" alignment-baseline="central" text-anchor="end" font-size="50px" font-family="&quot;Gill Sans&quot;, &quot;Gill Sans MT&quot;, Calibri, sans-serif" xml:space="preserve">total: </text><text class="speech-bubble-content property-key" x="-555.4150390625" y="-155" alignment-baseline="central" text-anchor="end" font-size="50px" font-family="&quot;Gill Sans&quot;, &quot;Gill Sans MT&quot;, Calibri, sans-serif" xml:space="preserve">similar: </text><text class="speech-bubble-content property-key" x="-555.4150390625" y="-105" alignment-baseline="central" text-anchor="end" font-size="50px" font-family="&quot;Gill Sans&quot;, &quot;Gill Sans MT&quot;, Calibri, sans-serif" xml:space="preserve">comment: </text><text class="speech-bubble-content property-value" x="-555.4150390625" y="-255" alignment-baseline="central" font-size="50px" font-family="&quot;Gill Sans&quot;, &quot;Gill Sans MT&quot;, Calibri, sans-serif">int*</text><text class="speech-bubble-content property-value" x="-555.4150390625" y="-205" alignment-baseline="central" font-size="50px" font-family="&quot;Gill Sans&quot;, &quot;Gill Sans MT&quot;, Calibri, sans-serif">int*</text><text class="speech-bubble-content property-value" x="-555.4150390625" y="-155" alignment-baseline="central" font-size="50px" font-family="&quot;Gill Sans&quot;, &quot;Gill Sans MT&quot;, Calibri, sans-serif">string</text><text class="speech-bubble-content property-value" x="-555.4150390625" y="-105" alignment-baseline="central" font-size="50px" font-family="&quot;Gill Sans&quot;, &quot;Gill Sans MT&quot;, Calibri, sans-serif">string</text><text class="speech-bubble-content property-key" x="-555.4150390625" y="-55" alignment-baseline="central" text-anchor="end" font-size="50px" font-family="&quot;Gill Sans&quot;, &quot;Gill Sans MT&quot;, Calibri, sans-serif" xml:space="preserve">status: </text><text class="speech-bubble-content property-value" x="-555.4150390625" y="-55" alignment-baseline="central" font-size="50px" font-family="&quot;Gill Sans&quot;, &quot;Gill Sans MT&quot;, Calibri, sans-serif">live|postponed|withdrawn</text></g><g class="speech-bubble node-speech-bubble" transform="translate(920.911464058245,-940.3578446734793) "><path class="speech-bubble-outline" transform="scale(1,-1) " d="M 0 0 L 30 20 L 503.1689453125 20 A 10 10 0 0 1 513.1689453125 30 L 513.1689453125 230 A 10 10 0 0 1 503.1689453125 240 L 30 240 A 10 10 0 0 1 20 230 L 20 30 Z" fill="rgb(255, 255, 255)" stroke="rgb(0, 0, 0)" stroke-width="3px"/><text class="speech-bubble-content property-key" x="325.6298828125" y="-205" alignment-baseline="central" text-anchor="end" font-size="50px" font-family="&quot;Gill Sans&quot;, &quot;Gill Sans MT&quot;, Calibri, sans-serif" xml:space="preserve">doc_id: </text><text class="speech-bubble-content property-key" x="325.6298828125" y="-155" alignment-baseline="central" text-anchor="end" font-size="50px" font-family="&quot;Gill Sans&quot;, &quot;Gill Sans MT&quot;, Calibri, sans-serif" xml:space="preserve">title: </text><text class="speech-bubble-content property-key" x="325.6298828125" y="-105" alignment-baseline="central" text-anchor="end" font-size="50px" font-family="&quot;Gill Sans&quot;, &quot;Gill Sans MT&quot;, Calibri, sans-serif" xml:space="preserve">assigned_on: </text><text class="speech-bubble-content property-value" x="325.6298828125" y="-205" alignment-baseline="central" font-size="50px" font-family="&quot;Gill Sans&quot;, &quot;Gill Sans MT&quot;, Calibri, sans-serif">string*</text><text class="speech-bubble-content property-value" x="325.6298828125" y="-155" alignment-baseline="central" font-size="50px" font-family="&quot;Gill Sans&quot;, &quot;Gill Sans MT&quot;, Calibri, sans-serif">string*</text><text class="speech-bubble-content property-value" x="325.6298828125" y="-105" alignment-baseline="central" font-size="50px" font-family="&quot;Gill Sans&quot;, &quot;Gill Sans MT&quot;, Calibri, sans-serif">datetime</text><text class="speech-bubble-content property-key" x="325.6298828125" y="-55" alignment-baseline="central" text-anchor="end" font-size="50px" font-family="&quot;Gill Sans&quot;, &quot;Gill Sans MT&quot;, Calibri, sans-serif" xml:space="preserve">published_on: </text><text class="speech-bubble-content property-value" x="325.6298828125" y="-55" alignment-baseline="central" font-size="50px" font-family="&quot;Gill Sans&quot;, &quot;Gill Sans MT&quot;, Calibri, sans-serif">datetime</text></g><g class="speech-bubble node-speech-bubble" transform="translate(-335.76622772216797,-109.98083218486734) "><path class="speech-bubble-outline" transform="scale(1,1) " d="M 0 0 L -10 20 L -155.38330078125 20 A 10 10 0 0 0 -165.38330078125 30 L -165.38330078125 180 A 10 10 0 0 0 -155.38330078125 190 L 155.38330078125 190 A 10 10 0 0 0 165.38330078125 180 L 165.38330078125 30 A 10 10 0 0 0 155.38330078125 20 L 10 20 Z" fill="rgb(255, 255, 255)" stroke="rgb(0, 0, 0)" stroke-width="3px"/><text class="speech-bubble-content property-key" x="21.54541015625" y="55" alignment-baseline="central" text-anchor="end" font-size="50px" font-family="&quot;Gill Sans&quot;, &quot;Gill Sans MT&quot;, Calibri, sans-serif" xml:space="preserve">char_id: </text><text class="speech-bubble-content property-key" x="21.54541015625" y="105" alignment-baseline="central" text-anchor="end" font-size="50px" font-family="&quot;Gill Sans&quot;, &quot;Gill Sans MT&quot;, Calibri, sans-serif" xml:space="preserve">code: </text><text class="speech-bubble-content property-key" x="21.54541015625" y="155" alignment-baseline="central" text-anchor="end" font-size="50px" font-family="&quot;Gill Sans&quot;, &quot;Gill Sans MT&quot;, Calibri, sans-serif" xml:space="preserve">utf8: </text><text class="speech-bubble-content property-value" x="21.54541015625" y="55" alignment-baseline="central" font-size="50px" font-family="&quot;Gill Sans&quot;, &quot;Gill Sans MT&quot;, Calibri, sans-serif">int*</text><text class="speech-bubble-content property-value" x="21.54541015625" y="105" alignment-baseline="central" font-size="50px" font-family="&quot;Gill Sans&quot;, &quot;Gill Sans MT&quot;, Calibri, sans-serif">string*</text><text class="speech-bubble-content property-value" x="21.54541015625" y="155" alignment-baseline="central" font-size="50px" font-family="&quot;Gill Sans&quot;, &quot;Gill Sans MT&quot;, Calibri, sans-serif">string</text></g><g class="speech-bubble relationship-speech-bubble" transform="translate(-686.5962877690204,-231.30617185177803) "><path class="speech-bubble-outline" transform="scale(1,1) " d="M 0 0 L -10 20 L -91.85791015625 20 A 10 10 0 0 0 -101.85791015625 30 L -101.85791015625 80 A 10 10 0 0 0 -91.85791015625 90 L 91.85791015625 90 A 10 10 0 0 0 101.85791015625 80 L 101.85791015625 30 A 10 10 0 0 0 91.85791015625 20 L 10 20 Z" fill="rgb(255, 255, 255)" stroke="rgb(0, 0, 0)" stroke-width="3px"/><text class="speech-bubble-content property-key" x="39.24560546875" y="55" alignment-baseline="central" text-anchor="end" font-size="50px" font-family="&quot;Gill Sans&quot;, &quot;Gill Sans MT&quot;, Calibri, sans-serif" xml:space="preserve">serial: </text><text class="speech-bubble-content property-value" x="39.24560546875" y="55" alignment-baseline="central" font-size="50px" font-family="&quot;Gill Sans&quot;, &quot;Gill Sans MT&quot;, Calibri, sans-serif">int</text></g><g class="speech-bubble node-speech-bubble" transform="translate(464.7158508300781,980.2327621574686) "><path class="speech-bubble-outline" transform="scale(1,1) " d="M 0 0 L -10 20 L -147.55859375 20 A 10 10 0 0 0 -157.55859375 30 L -157.55859375 130 A 10 10 0 0 0 -147.55859375 140 L 147.55859375 140 A 10 10 0 0 0 157.55859375 130 L 157.55859375 30 A 10 10 0 0 0 147.55859375 20 L 10 20 Z" fill="rgb(255, 255, 255)" stroke="rgb(0, 0, 0)" stroke-width="3px"/><text class="speech-bubble-content property-key" x="13.720703125" y="55" alignment-baseline="central" text-anchor="end" font-size="50px" font-family="&quot;Gill Sans&quot;, &quot;Gill Sans MT&quot;, Calibri, sans-serif" xml:space="preserve">name: </text><text class="speech-bubble-content property-key" x="13.720703125" y="105" alignment-baseline="central" text-anchor="end" font-size="50px" font-family="&quot;Gill Sans&quot;, &quot;Gill Sans MT&quot;, Calibri, sans-serif" xml:space="preserve">format: </text><text class="speech-bubble-content property-value" x="13.720703125" y="55" alignment-baseline="central" font-size="50px" font-family="&quot;Gill Sans&quot;, &quot;Gill Sans MT&quot;, Calibri, sans-serif">string*</text><text class="speech-bubble-content property-value" x="13.720703125" y="105" alignment-baseline="central" font-size="50px" font-family="&quot;Gill Sans&quot;, &quot;Gill Sans MT&quot;, Calibri, sans-serif">string*</text></g><g class="speech-bubble node-speech-bubble" transform="translate(854.0864151000977,1010.4750637500437) "><path class="speech-bubble-outline" transform="scale(1,1) " d="M 0 0 L -10 20 L -147.55859375 20 A 10 10 0 0 0 -157.55859375 30 L -157.55859375 130 A 10 10 0 0 0 -147.55859375 140 L 147.55859375 140 A 10 10 0 0 0 157.55859375 130 L 157.55859375 30 A 10 10 0 0 0 147.55859375 20 L 10 20 Z" fill="rgb(255, 255, 255)" stroke="rgb(0, 0, 0)" stroke-width="3px"/><text class="speech-bubble-content property-key" x="13.720703125" y="55" alignment-baseline="central" text-anchor="end" font-size="50px" font-family="&quot;Gill Sans&quot;, &quot;Gill Sans MT&quot;, Calibri, sans-serif" xml:space="preserve">name: </text><text class="speech-bubble-content property-key" x="13.720703125" y="105" alignment-baseline="central" text-anchor="end" font-size="50px" font-family="&quot;Gill Sans&quot;, &quot;Gill Sans MT&quot;, Calibri, sans-serif" xml:space="preserve">format: </text><text class="speech-bubble-content property-value" x="13.720703125" y="55" alignment-baseline="central" font-size="50px" font-family="&quot;Gill Sans&quot;, &quot;Gill Sans MT&quot;, Calibri, sans-serif">string*</text><text class="speech-bubble-content property-value" x="13.720703125" y="105" alignment-baseline="central" font-size="50px" font-family="&quot;Gill Sans&quot;, &quot;Gill Sans MT&quot;, Calibri, sans-serif">string*</text></g><g class="speech-bubble relationship-speech-bubble" transform="translate(204.7818559255702,45.26731322470749) "><path class="speech-bubble-outline" transform="scale(1,1) " d="M 0 0 L 30 20 L 897.7734375 20 A 10 10 0 0 1 907.7734375 30 L 907.7734375 80 A 10 10 0 0 1 897.7734375 90 L 30 90 A 10 10 0 0 1 20 80 L 20 30 Z" fill="rgb(255, 255, 255)" stroke="rgb(0, 0, 0)" stroke-width="3px"/><text class="speech-bubble-content property-key" x="252.7294921875" y="55" alignment-baseline="central" text-anchor="end" font-size="50px" font-family="&quot;Gill Sans&quot;, &quot;Gill Sans MT&quot;, Calibri, sans-serif" xml:space="preserve">operation: </text><text class="speech-bubble-content property-value" x="252.7294921875" y="55" alignment-baseline="central" font-size="50px" font-family="&quot;Gill Sans&quot;, &quot;Gill Sans MT&quot;, Calibri, sans-serif">unknown|substitute|extend|IVD</text></g><g class="speech-bubble relationship-speech-bubble" transform="translate(1120.5464420582275,-243.31309824297506) "><path class="speech-bubble-outline" transform="scale(1,1) " d="M 0 0 L -10 20 L -212.8662109375 20 A 10 10 0 0 0 -222.8662109375 30 L -222.8662109375 80 A 10 10 0 0 0 -212.8662109375 90 L 212.8662109375 90 A 10 10 0 0 0 222.8662109375 80 L 222.8662109375 30 A 10 10 0 0 0 212.8662109375 20 L 10 20 Z" fill="rgb(255, 255, 255)" stroke="rgb(0, 0, 0)" stroke-width="3px"/><text class="speech-bubble-content property-key" x="-76.5625" y="55" alignment-baseline="central" text-anchor="end" font-size="50px" font-family="&quot;Gill Sans&quot;, &quot;Gill Sans MT&quot;, Calibri, sans-serif" xml:space="preserve">effect: </text><text class="speech-bubble-content property-value" x="-76.5625" y="55" alignment-baseline="central" font-size="50px" font-family="&quot;Gill Sans&quot;, &quot;Gill Sans MT&quot;, Calibri, sans-serif">agree|disagree</text></g><g class="speech-bubble node-speech-bubble" transform="translate(829.0421447753906,-1614.0013029524698) "><path class="speech-bubble-outline" transform="scale(1,-1) " d="M 0 0 L -10 20 L -133.7646484375 20 A 10 10 0 0 0 -143.7646484375 30 L -143.7646484375 80 A 10 10 0 0 0 -133.7646484375 90 L 133.7646484375 90 A 10 10 0 0 0 143.7646484375 80 L 143.7646484375 30 A 10 10 0 0 0 133.7646484375 20 L 10 20 Z" fill="rgb(255, 255, 255)" stroke="rgb(0, 0, 0)" stroke-width="3px"/><text class="speech-bubble-content property-key" x="-0.0732421875" y="-55" alignment-baseline="central" text-anchor="end" font-size="50px" font-family="&quot;Gill Sans&quot;, &quot;Gill Sans MT&quot;, Calibri, sans-serif" xml:space="preserve">name: </text><text class="speech-bubble-content property-value" x="-0.0732421875" y="-55" alignment-baseline="central" font-size="50px" font-family="&quot;Gill Sans&quot;, &quot;Gill Sans MT&quot;, Calibri, sans-serif">string*</text></g><g class="speech-bubble node-speech-bubble" transform="translate(352.49522271225226,-1245.8229474537634) "><path class="speech-bubble-outline" transform="scale(-1,-1) " d="M 0 0 L 30 20 L 325.1171875 20 A 10 10 0 0 1 335.1171875 30 L 335.1171875 130 A 10 10 0 0 1 325.1171875 140 L 30 140 A 10 10 0 0 1 20 130 L 20 30 Z" fill="rgb(255, 255, 255)" stroke="rgb(0, 0, 0)" stroke-width="3px"/><text class="speech-bubble-content property-key" x="-163.837890625" y="-105" alignment-baseline="central" text-anchor="end" font-size="50px" font-family="&quot;Gill Sans&quot;, &quot;Gill Sans MT&quot;, Calibri, sans-serif" xml:space="preserve">name: </text><text class="speech-bubble-content property-key" x="-163.837890625" y="-55" alignment-baseline="central" text-anchor="end" font-size="50px" font-family="&quot;Gill Sans&quot;, &quot;Gill Sans MT&quot;, Calibri, sans-serif" xml:space="preserve">format: </text><text class="speech-bubble-content property-value" x="-163.837890625" y="-105" alignment-baseline="central" font-size="50px" font-family="&quot;Gill Sans&quot;, &quot;Gill Sans MT&quot;, Calibri, sans-serif">string*</text><text class="speech-bubble-content property-value" x="-163.837890625" y="-55" alignment-baseline="central" font-size="50px" font-family="&quot;Gill Sans&quot;, &quot;Gill Sans MT&quot;, Calibri, sans-serif">string*</text></g></g><g class="layer overlay"><circle class="node overlay" r="88.36977273673656" stroke="none" fill="rgba(255, 255, 255, 0)" cx="-1029.20634765625" cy="-228.11787719726564"/><circle class="node ring" r="93.36977273673656" fill="none" stroke="rgba(255, 255, 255, 0)" stroke-width="10px" cx="-1029.20634765625" cy="-228.11787719726564"/><circle class="node overlay" r="149.67360080020023" stroke="none" fill="rgba(255, 255, 255, 0)" cx="725.1160430908203" cy="-243.31309824297506"/><circle class="node ring" r="154.67360080020023" fill="none" stroke="rgba(255, 255, 255, 0)" stroke-width="10px" cx="725.1160430908203" cy="-243.31309824297506"/><path class="relationship overlay" fill="rgba(255, 255, 255, 0)" stroke="rgba(255, 255, 255, 0)" stroke-width="10px" transform="translate(829.0421447753906,-848.488525390625) rotate(99.74429321730841)" d="M 144.92283729579663 4 L 421.3605450212616 4 L 421.3605450212616 16 L 453.3605450212616 0 L 421.3605450212616 -16 L 421.3605450212616 -4 L 144.92283729579663 -4 Z"/><circle class="node overlay" r="133.92283729579663" stroke="none" fill="rgba(255, 255, 255, 0)" cx="829.0421447753906" cy="-848.488525390625"/><circle class="node ring" r="138.92283729579663" fill="none" stroke="rgba(255, 255, 255, 0)" stroke-width="10px" cx="829.0421447753906" cy="-848.488525390625"/><path class="relationship overlay" fill="rgba(255, 255, 255, 0)" stroke="rgba(255, 255, 255, 0)" stroke-width="10px" transform="translate(725.1160430908203,-243.31309824297506) rotate(179.52786822373622)" d="M 160.67360080020023 4 L 889.3281609188275 4 L 889.3281609188275 16 L 921.3281609188275 0 L 889.3281609188275 -16 L 889.3281609188275 -4 L 160.67360080020023 -4 Z"/><circle class="node overlay" r="128.59012881366783" stroke="none" fill="rgba(255, 255, 255, 0)" cx="-335.76622772216797" cy="-234.57096099853516"/><circle class="node ring" r="133.59012881366783" fill="none" stroke="rgba(255, 255, 255, 0)" stroke-width="10px" cx="-335.76622772216797" cy="-234.57096099853516"/><path class="relationship overlay" fill="rgba(255, 255, 255, 0)" stroke="rgba(255, 255, 255, 0)" stroke-width="10px" transform="translate(-335.76622772216797,-234.57096099853516) rotate(179.46682664643802)" d="M 139.59012881366783 4 L 562.1003724207463 4 L 562.1003724207463 16 L 594.1003724207463 0 L 562.1003724207463 -16 L 562.1003724207463 -4 L 139.59012881366783 -4 Z"/><circle class="node overlay" r="144.35304899342248" stroke="none" fill="rgba(255, 255, 255, 0)" cx="-332.6906982421875" cy="-813.8331420898438"/><circle class="node ring" r="149.35304899342248" fill="none" stroke="rgba(255, 255, 255, 0)" stroke-width="10px" cx="-332.6906982421875" cy="-813.8331420898438"/><path class="relationship overlay" fill="rgba(255, 255, 255, 0)" stroke="rgba(255, 255, 255, 0)" stroke-width="10px" transform="translate(-335.76622772216797,-234.57096099853516) rotate(-89.69579715551914)" d="M 139.59012881366783 4 L 391.9172966348017 4 L 391.9172966348017 16 L 423.9172966348017 0 L 391.9172966348017 -16 L 391.9172966348017 -4 L 139.59012881366783 -4 Z"/><circle class="node overlay" r="103.5407748053742" stroke="none" fill="rgba(255, 255, 255, 0)" cx="-1033.3114624023438" cy="-805.4356811523438"/><circle class="node ring" r="108.5407748053742" fill="none" stroke="rgba(255, 255, 255, 0)" stroke-width="10px" cx="-1033.3114624023438" cy="-805.4356811523438"/><path class="relationship overlay" fill="rgba(255, 255, 255, 0)" stroke="rgba(255, 255, 255, 0)" stroke-width="10px" transform="translate(-332.6906982421875,-813.8331420898438) rotate(179.3133003514774)" d="M 155.35304899342248 4 L 554.1303124549452 4 L 554.1303124549452 16 L 586.1303124549452 0 L 554.1303124549452 -16 L 554.1303124549452 -4 L 155.35304899342248 -4 Z"/><circle class="node overlay" r="87.94141083910932" stroke="none" fill="rgba(255, 255, 255, 0)" cx="464.7158508300781" cy="896.2913513183594"/><circle class="node ring" r="92.94141083910932" fill="none" stroke="rgba(255, 255, 255, 0)" stroke-width="10px" cx="464.7158508300781" cy="896.2913513183594"/><path class="relationship overlay" fill="rgba(255, 255, 255, 0)" stroke="rgba(255, 255, 255, 0)" stroke-width="10px" transform="translate(725.1160430908203,-243.31309824297506) rotate(102.87113964294073)" d="M 160.67360080020023 4 L 1038.0353047499668 4 L 1038.0353047499668 16 L 1070.0353047499668 0 L 1038.0353047499668 -16 L 1038.0353047499668 -4 L 160.67360080020023 -4 Z"/><circle class="node overlay" r="115.51650356937955" stroke="none" fill="rgba(255, 255, 255, 0)" cx="854.0864151000977" cy="898.9585601806641"/><circle class="node ring" r="120.51650356937955" fill="none" stroke="rgba(255, 255, 255, 0)" stroke-width="10px" cx="854.0864151000977" cy="898.9585601806641"/><path class="relationship overlay" fill="rgba(255, 255, 255, 0)" stroke="rgba(255, 255, 255, 0)" stroke-width="10px" transform="translate(725.1160430908203,-243.31309824297506) rotate(83.55819103920838)" d="M 160.67360080020023 4 L 991.0129212363112 4 L 991.0129212363112 16 L 1023.0129212363112 0 L 991.0129212363112 -16 L 991.0129212363112 -4 L 160.67360080020023 -4 Z"/><circle class="node overlay" r="144.35304899342248" stroke="none" fill="rgba(255, 255, 255, 0)" cx="-338.88376502990724" cy="346.7874755859375"/><circle class="node ring" r="149.35304899342248" fill="none" stroke="rgba(255, 255, 255, 0)" stroke-width="10px" cx="-338.88376502990724" cy="346.7874755859375"/><path class="relationship overlay" fill="rgba(255, 255, 255, 0)" stroke="rgba(255, 255, 255, 0)" stroke-width="10px" transform="translate(725.1160430908203,-243.31309824297506) rotate(150.9869909660557)" d="M 160.67360080020023 4 L 1029.328618047779 4 L 1029.328618047779 16 L 1061.328618047779 0 L 1029.328618047779 -16 L 1029.328618047779 -4 L 160.67360080020023 -4 Z"/><circle class="node overlay" r="165.55351703393458" stroke="none" fill="rgba(255, 255, 255, 0)" cx="1563.856757259369" cy="-243.31309824297506"/><circle class="node ring" r="170.55351703393458" fill="none" stroke="rgba(255, 255, 255, 0)" stroke-width="10px" cx="1563.856757259369" cy="-243.31309824297506"/><path class="relationship overlay" fill="rgba(255, 255, 255, 0)" stroke="rgba(255, 255, 255, 0)" stroke-width="10px" transform="translate(725.1160430908203,-243.31309824297506) rotate(0)" d="M 160.67360080020023 4 L 630.187197134614 4 L 630.187197134614 16 L 662.187197134614 0 L 630.187197134614 -16 L 630.187197134614 -4 L 160.67360080020023 -4 Z"/><circle class="node overlay" r="88.13298630207927" stroke="none" fill="rgba(255, 255, 255, 0)" cx="829.0421447753906" cy="-1529.8683166503906"/><circle class="node ring" r="93.13298630207927" fill="none" stroke="rgba(255, 255, 255, 0)" stroke-width="10px" cx="829.0421447753906" cy="-1529.8683166503906"/><path class="relationship overlay" fill="rgba(255, 255, 255, 0)" stroke="rgba(255, 255, 255, 0)" stroke-width="10px" transform="translate(829.0421447753906,-1529.8683166503906) rotate(90)" d="M 99.13298630207927 4 L 504.456953963969 4 L 504.456953963969 16 L 536.456953963969 0 L 504.456953963969 -16 L 504.456953963969 -4 L 99.13298630207927 -4 Z"/><circle class="node overlay" r="149.72146891864963" stroke="none" fill="rgba(255, 255, 255, 0)" cx="1582.4335327148438" cy="-848.488525390625"/><circle class="node ring" r="154.72146891864963" fill="none" stroke="rgba(255, 255, 255, 0)" stroke-width="10px" cx="1582.4335327148438" cy="-848.488525390625"/><path class="relationship overlay" fill="rgba(255, 255, 255, 0)" stroke="rgba(255, 255, 255, 0)" stroke-width="10px" transform="translate(829.0421447753906,-848.488525390625) rotate(0)" d="M 144.92283729579663 4 L 560.6699190208035 4 L 560.6699190208035 16 L 592.6699190208035 0 L 560.6699190208035 -16 L 560.6699190208035 -4 L 144.92283729579663 -4 Z"/><circle class="node overlay" r="109.76094540740877" stroke="none" fill="rgba(255, 255, 255, 0)" cx="427.2795043945313" cy="-1171.0386657714844"/><circle class="node ring" r="114.76094540740877" fill="none" stroke="rgba(255, 255, 255, 0)" stroke-width="10px" cx="427.2795043945313" cy="-1171.0386657714844"/><path class="relationship overlay" fill="rgba(255, 255, 255, 0)" stroke="rgba(255, 255, 255, 0)" stroke-width="10px" transform="translate(829.0421447753906,-848.488525390625) rotate(-141.2411943834037)" d="M 144.92283729579663 4 L 362.4592136173637 4 L 362.4592136173637 16 L 394.4592136173637 0 L 362.4592136173637 -16 L 362.4592136173637 -4 L 144.92283729579663 -4 Z"/></g></svg>